<?xml version="1.0" encoding="UTF-8"?>
<svg version="1.1" xmlns="http://www.w3.org/2000/svg" width="1280" height="792">
<path d="M0 0 C145.53 0 291.06 0 441 0 C447.93 22.77 454.86 45.54 462 69 C466.47240868 83.61535599 470.94618027 98.23018518 475.43353271 112.84094238 C476.55256451 116.48538726 477.670625 120.13012985 478.78868866 123.77487183 C479.9049366 127.41333016 481.02174706 131.05161571 482.1386261 134.68988037 C482.67586041 136.44034291 483.21288294 138.19087047 483.74967957 139.94146729 C486.40468909 148.59973024 489.07164814 157.25356169 491.79492188 165.890625 C492.22472823 167.25799778 492.65447855 168.62538817 493.08416748 169.99279785 C493.86627049 172.4811848 494.65568562 174.96682631 495.44952393 177.45153809 C495.95935822 179.07170837 495.95935822 179.07170837 496.47949219 180.72460938 C496.77539246 181.65446655 497.07129272 182.58432373 497.37615967 183.5423584 C498 186 498 186 498 190 C502.00130621 187.05429686 504.96791811 183.75110335 507.9375 179.8125 C512.18867633 174.28538278 516.54647856 168.86538087 521 163.5 C525.71369933 157.809117 530.34454555 152.06673358 534.88671875 146.23828125 C538.36853977 141.77910696 541.92248072 137.38265769 545.5 133 C549.54982067 128.03767756 553.55805194 123.0484598 557.5 118 C561.9820011 112.25989332 566.55956557 106.60306754 571.1640625 100.9609375 C574.65530083 96.67548382 578.09818888 92.35670547 581.5 88 C585.9820011 82.25989332 590.55956557 76.60306754 595.1640625 70.9609375 C598.65530083 66.67548382 602.09818888 62.35670547 605.5 58 C609.9820011 52.25989332 614.55956557 46.60306754 619.1640625 40.9609375 C623.10658688 36.12153554 626.9776494 31.23141138 630.81835938 26.31103516 C635.0329764 20.92586209 639.3449949 15.62172735 643.67382812 10.328125 C644.19396484 9.69132812 644.71410156 9.05453125 645.25 8.3984375 C645.70890625 7.83817871 646.1678125 7.27791992 646.640625 6.70068359 C648.06284217 4.99068915 648.06284217 4.99068915 649.28566509 2.92534214 C651 1 651 1 653.18704122 0.49745268 C654.47487889 0.49566545 654.47487889 0.49566545 655.78873348 0.49384212 C656.78065699 0.48279444 657.77258049 0.47174675 658.79456228 0.46036428 C659.88731751 0.46860505 660.98007275 0.47684582 662.10594177 0.4853363 C663.26481228 0.47839078 664.4236828 0.47144525 665.6176706 0.46428925 C668.84068473 0.44912265 672.06310974 0.45198905 675.28612459 0.46244228 C678.76111861 0.4694181 682.2360171 0.45344676 685.71098328 0.44044495 C692.52797204 0.41875574 699.34479415 0.41894715 706.1618061 0.42707049 C711.71547745 0.4333723 717.26910024 0.43223169 722.82277107 0.42579842 C723.6135844 0.42489676 724.40439772 0.42399511 725.21917509 0.42306613 C726.82606603 0.4212148 728.43295695 0.41935224 730.03984786 0.41747857 C745.1324985 0.40087622 760.22505588 0.40963251 775.31770093 0.42646415 C789.06591199 0.44108987 802.81390308 0.4266383 816.56208574 0.39769398 C830.71009498 0.36813309 844.85800334 0.35738057 859.00604206 0.36687618 C860.61463962 0.36789859 862.2232372 0.36889321 863.83183479 0.3698597 C864.62307365 0.37033609 865.4143125 0.37081248 866.22952829 0.3713033 C871.75133456 0.37344957 877.27304363 0.36375711 882.79482841 0.34908867 C889.56244843 0.3313617 896.32979083 0.33196482 903.0974009 0.35444032 C906.5380483 0.36541487 909.97781929 0.3663259 913.41850281 0.35013962 C965.50061231 0.12482211 1019.09135715 15.71147128 1057.0625 52.6875 C1077.92839641 73.67058293 1089.4162505 101.05339035 1089.375 130.5625 C1089.37418427 131.55120087 1089.37418427 131.55120087 1089.37335205 132.55987549 C1089.33182297 143.5378379 1088.39124935 153.56042344 1085 164 C1084.78569336 164.67627441 1084.57138672 165.35254883 1084.35058594 166.04931641 C1070.22108804 209.51757521 1033.98273974 240.31053176 994.56689453 260.86669922 C963.34180814 276.57175704 929.36373953 285.65994404 895 291.25 C893.6070874 291.47659302 893.6070874 291.47659302 892.18603516 291.70776367 C875.86787789 294.2205388 859.79914859 295.29386656 843.30004883 295.22705078 C841.30712388 295.2264849 839.31419851 295.22680667 837.3212738 295.22793579 C831.97542432 295.22850341 826.62966684 295.21684619 821.28383851 295.20278788 C815.67317324 295.19018064 810.06250525 295.18910222 804.451828 295.18673706 C793.85598327 295.18055139 783.26018042 295.16418049 772.66435403 295.14403808 C760.58917927 295.12158777 748.51400238 295.11066281 736.4388119 295.10064721 C711.62585149 295.07981129 686.81292811 295.04469271 662 295 C668.12559835 268.16855221 674.28329629 241.34697629 680.64453125 214.5703125 C681.30985746 211.76424329 681.97459156 208.95803392 682.639328 206.15182495 C684.17814695 199.65691542 685.71858235 193.16239072 687.25981873 186.66805446 C690.02291211 175.02501312 692.78349539 163.38137668 695.54282111 151.7374419 C696.34823141 148.33899721 697.15401495 144.94064198 697.96076393 141.5425148 C698.8570779 137.76694509 699.75245321 133.9911537 700.64770508 130.21533203 C700.89872482 129.15927261 701.14974457 128.1032132 701.40837097 127.01515198 C704.32870766 114.68941684 707.15154102 102.34332226 710 90 C748.94 90 787.88 90 828 90 C826.87499476 100.12504715 826.87499476 100.12504715 825.83694458 104.48127747 C825.60430908 105.4691777 825.37167358 106.45707794 825.13198853 107.47491455 C824.87847626 108.52709167 824.62496399 109.5792688 824.36376953 110.66333008 C823.96112885 112.36277016 823.96112885 112.36277016 823.550354 114.09654236 C822.66630678 117.82211366 821.77463606 121.5458145 820.8828125 125.26953125 C820.26321132 127.87340386 819.64402197 130.47737108 819.02536011 133.08146667 C817.72924945 138.53342636 816.42926359 143.98444925 815.12646484 149.43481445 C813.29795813 157.08453946 811.47632089 164.73588763 809.65614152 172.38759768 C807.07361499 183.24230212 804.48773956 194.09621215 801.89501953 204.94848633 C801.64555573 205.99459076 801.39609192 207.04069519 801.1390686 208.11849976 C799.47170931 215.09064793 797.75098628 222.0483942 796 229 C803.34781645 228.82738512 810.69493384 228.63838555 818.04169083 228.42494583 C821.45553632 228.32633607 824.86929527 228.23370597 828.28369141 228.15625 C844.23798927 227.78099272 859.50608803 226.98996041 875 223 C875.74576797 222.81147964 876.49153595 222.62295929 877.25990295 222.4287262 C899.43077584 216.76819682 920.63048252 207.03412017 938 192 C939.22783203 190.98873047 939.22783203 190.98873047 940.48046875 189.95703125 C956.71243968 176.14098157 966.81009017 157.60037334 969.30859375 136.37890625 C969.77311814 121.04960142 963.39921673 105.55057762 953 94.4375 C931.42875984 73.98637449 900.31192081 67.78776951 871.55810547 67.59838867 C869.93710619 67.58090617 868.31611412 67.562744 866.69512939 67.54396057 C861.41922913 67.48691795 856.14328607 67.45087433 850.8671875 67.41796875 C849.51546314 67.4090496 849.51546314 67.4090496 848.13643122 67.39995027 C839.62480429 67.34410463 831.1131694 67.29548251 822.601408 67.26580334 C811.75640041 67.22760605 800.91308087 67.1522209 790.06873024 67.02596492 C782.41659606 66.93992602 774.76491521 66.8962271 767.11231148 66.88368589 C762.5517559 66.87509943 757.99306717 66.84824234 753.43304062 66.77583885 C749.14591539 66.70867989 744.86174326 66.69423268 740.57419586 66.71922874 C739.00763842 66.71939494 737.44094304 66.70094336 735.87487411 66.66182327 C726.83625494 66.44198401 726.83625494 66.44198401 718.90481949 70.39196205 C716.37345198 73.14939721 714.17114187 75.95497812 712 79 C710.82858983 80.36810885 709.64460083 81.72577595 708.4375 83.0625 C707.88707031 83.69542969 707.33664062 84.32835937 706.76953125 84.98046875 C702.46130252 89.89736556 698.05313844 94.72639032 693.671875 99.578125 C689.68295423 104.00121401 685.72432093 108.44615005 681.8125 112.9375 C678.96852205 116.17375077 676.07387299 119.36408668 673.1875 122.5625 C671.27445851 124.69417481 669.38112388 126.8401911 667.5 129 C664.10746907 132.89512811 660.64805799 136.72782763 657.1875 140.5625 C655.27445851 142.69417481 653.38112388 144.8401911 651.5 147 C648.10746907 150.89512811 644.64805799 154.72782763 641.1875 158.5625 C639.27445851 160.69417481 637.38112388 162.8401911 635.5 165 C632.10746907 168.89512811 628.64805799 172.72782763 625.1875 176.5625 C623.27445851 178.69417481 621.38112388 180.8401911 619.5 183 C616.10746907 186.89512811 612.64805799 190.72782763 609.1875 194.5625 C607.27445851 196.69417481 605.38112388 198.8401911 603.5 201 C600.10746907 204.89512811 596.64805799 208.72782763 593.1875 212.5625 C591.27445851 214.69417481 589.38112388 216.8401911 587.5 219 C584.10746907 222.89512811 580.64805799 226.72782763 577.1875 230.5625 C575.27445851 232.69417481 573.38112388 234.8401911 571.5 237 C568.10746907 240.89512811 564.64805799 244.72782763 561.1875 248.5625 C559.27445851 250.69417481 557.38112388 252.8401911 555.5 255 C552.10746907 258.89512811 548.64805799 262.72782763 545.1875 266.5625 C543.27445851 268.69417481 541.38112388 270.8401911 539.5 273 C536.10746907 276.89512811 532.64805799 280.72782763 529.1875 284.5625 C527.27445851 286.69417481 525.38112388 288.8401911 523.5 291 C520.10746907 294.89512811 516.64805799 298.72782763 513.1875 302.5625 C511.27445851 304.69417481 509.38112388 306.8401911 507.5 309 C504.10746907 312.89512811 500.64805799 316.72782763 497.1875 320.5625 C495.27445851 322.69417481 493.38112388 324.8401911 491.5 327 C488.10746907 330.89512811 484.64805799 334.72782763 481.1875 338.5625 C478.70740473 341.32603473 476.26516638 344.12041622 473.828125 346.921875 C470.92928269 350.21714019 467.97092309 353.45849702 465.015625 356.703125 C463.22856433 358.73954298 461.61039059 360.82419864 460 363 C461.09355301 363.01839432 462.18710602 363.03678864 463.313797 363.05574036 C560.42795649 364.69838973 657.34489926 367.19262037 951 404 C952.14146484 404.28198242 953.28292969 404.56396484 954.45898438 404.85449219 C1013.83339221 419.67274935 1013.83339221 419.67274935 1024.875 436.8125 C1027.26360273 440.94602356 1028.09024566 444.30919516 1027 449 C1022.67611913 460.5907173 1009.38774541 466.23861336 998.92062378 471.14334106 C993.34204353 473.63156425 987.54999617 475.54405402 981.75 477.4375 C981.04413757 477.67022614 980.33827515 477.90295227 979.61102295 478.14273071 C963.30774845 483.48794402 946.79550484 487.53882642 930 491 C929.20396362 491.16415405 928.40792725 491.32830811 927.58776855 491.49743652 C897.58755488 497.64291685 867.37248349 502.14777535 837 506 C835.9669574 506.1310614 834.93391479 506.2621228 833.86956787 506.39715576 C756.33970061 516.1662694 678.07585737 521.31642865 600 524 C598.85787048 524.04037384 597.71574097 524.08074768 596.53900146 524.12234497 C572.61274456 524.95639835 548.68874291 525.31532482 524.75 525.5625 C523.78177685 525.57269291 522.8135537 525.58288582 521.81599045 525.5933876 C442.13456206 526.43165519 362.61681788 526.06138891 -87 465 C-87.89589844 464.48824219 -88.79179688 463.97648437 -89.71484375 463.44921875 C-95.44572789 459.91151822 -101.25115236 455.42811669 -103.79296875 448.9921875 C-104.6880513 444.47246374 -103.75687561 440.94469904 -101.4609375 437 C-94.80267369 427.88494366 -85.03496748 423.44555439 -75 419 C-74.33419922 418.7023877 -73.66839844 418.40477539 -72.98242188 418.09814453 C13.28293732 380.29907585 123.0205451 378.16417974 455 363 C446.15820869 338.47508587 437.27609325 313.96597983 428.27096558 289.5005188 C422.20372069 273.01618764 416.17000416 256.5198255 410.15246582 240.01730347 C398.83688736 208.98615359 387.44285223 177.9844784 376 147 C375.57793274 145.85708496 375.15586548 144.71416992 374.7210083 143.53662109 C369.48416289 129.35645647 364.2439476 115.17753966 359 101 C359.05894943 101.55610962 359.11789886 102.11221924 359.17863464 102.68518066 C359.44939899 105.258517 359.71495454 107.83236687 359.98046875 110.40625 C360.07324097 111.28055664 360.16601318 112.15486328 360.26159668 113.05566406 C363.61214626 145.78970152 357.13461178 177.87084792 336.4375 204.1015625 C281.78495131 269.08904829 184.94315607 284.91512657 96.41589355 293.43841553 C89.94667723 293.99527318 83.47442801 294.50780972 77 295 C75.80192719 295.09248016 75.80192719 295.09248016 74.57965088 295.18682861 C31.87935469 298.44432601 -11.40132088 297.73362936 -54.1875 296.5625 C-54.92133911 296.54303314 -55.65517822 296.52356628 -56.41125488 296.50350952 C-67.62105219 296.1894739 -67.62105219 296.1894739 -70 295 C-69.39300785 288.42997052 -68.25801999 282.20708237 -66.70947266 275.79882812 C-66.4761429 274.81420121 -66.24281315 273.8295743 -66.0024128 272.81511021 C-65.22799264 269.55260408 -64.44600204 266.29196134 -63.6640625 263.03125 C-63.11092813 260.70686067 -62.55830694 258.38234917 -62.00616455 256.057724 C-60.52471735 249.82588422 -59.0369981 243.59555759 -57.54811859 237.36548996 C-55.23416464 227.6759811 -52.93121064 217.98384758 -50.62616909 208.29221541 C-49.69653669 204.38366434 -48.76631791 200.47525339 -47.83568227 196.56694108 C-43.86117576 179.87423515 -39.91760268 163.17465056 -36.015625 146.46484375 C-35.79039028 145.50083775 -35.56515556 144.53683174 -35.33309555 143.54361343 C-33.23668378 134.5705417 -31.14373402 125.59667868 -29.05899811 116.6208868 C-28.3156047 113.42335318 -27.56943285 110.22647265 -26.82253265 107.02975655 C-26.48119562 105.56567967 -26.14118296 104.1012933 -25.80258942 102.63657951 C-25.34802564 100.67029956 -24.88876264 98.70510767 -24.42919922 96.73999023 C-24.1753244 95.6471019 -23.92144958 94.55421356 -23.65988159 93.4282074 C-23 91 -23 91 -22 90 C-20.45646869 89.90415002 -18.90854892 89.8781193 -17.36204529 89.87974548 C-16.35938629 89.87837082 -15.35672729 89.87699615 -14.32368469 89.87557983 C-12.65997078 89.88097275 -12.65997078 89.88097275 -10.96264648 89.88647461 C-9.80182556 89.88632858 -8.64100464 89.88618256 -7.44500732 89.8860321 C-3.58701748 89.88673183 0.27092478 89.89452702 4.12890625 89.90234375 C6.79548728 89.90420772 9.46206564 89.90568088 12.12864685 89.90663147 C18.4432888 89.90974452 24.75791351 89.91795756 31.07254785 89.92798096 C38.25985633 89.9391429 45.44716561 89.94465275 52.6344806 89.94967639 C67.42299589 89.9601402 82.21149765 89.97773914 97 90 C94.39283907 101.97677483 91.60183059 113.89227202 88.62109375 125.78125 C88.20772259 127.43677135 87.79450329 129.09233062 87.38142395 130.7479248 C86.29316665 135.10627044 85.20161269 139.46378332 84.10902405 143.82104492 C83.43415798 146.51333254 82.76022596 149.2058524 82.08654785 151.8984375 C75.56047636 177.97708081 68.95309415 204.03132113 62 230 C68.84287464 229.81173229 75.68457784 229.59678123 82.52612305 229.36523438 C84.84234716 229.28975921 87.15876218 229.21988592 89.4753418 229.15625 C109.89881593 228.58880813 129.79550954 226.58827383 149.3125 220.25 C150.39515137 219.90565918 151.47780273 219.56131836 152.59326172 219.20654297 C172.81140806 212.61503759 191.0727086 203.25623132 207 189 C207.70382812 188.37867188 208.40765625 187.75734375 209.1328125 187.1171875 C221.64436725 175.39067148 232.56619012 157.65815831 233.46875 140.265625 C233.50288584 138.26068018 233.51269111 136.25519523 233.5 134.25 C233.49427979 133.1966748 233.48855957 132.14334961 233.48266602 131.05810547 C233.18439992 117.9966616 229.17865093 108.22792916 221 98 C220.56300781 97.38898438 220.12601562 96.77796875 219.67578125 96.1484375 C207.66393053 80.34906628 184.98079413 73.34012955 166.22956848 70.411026 C154.82252072 68.97900962 143.56191421 68.67200176 132.07421875 68.62109375 C130.06217762 68.60511058 128.05014335 68.5882419 126.03811646 68.57055664 C121.78467765 68.53476476 117.53125209 68.50443816 113.27774048 68.47872925 C106.63844632 68.43846483 99.99928957 68.3858471 93.36010742 68.33032227 C92.2546309 68.32110465 91.14915438 68.31188704 90.01017857 68.3023901 C87.77658561 68.28375577 85.54299294 68.26508762 83.30940056 68.24638557 C79.96160892 68.21875554 76.61380969 68.19230783 73.26600647 68.16612244 C54.17959601 68.01480508 35.09534899 67.76989781 16.01071548 67.47179031 C13.81080875 67.43747362 11.61089571 67.40359286 9.41098022 67.36984253 C1.60726406 67.24998402 -6.19639388 67.1268448 -14 67 C-11.72975433 44.2975433 -5.07330376 22.24448571 0 0 Z M357 95 C358 98 358 98 358 98 Z M430.58837891 402.03808594 C357.9043327 402.71973574 357.9043327 402.71973574 294.3828125 431.53515625 C291.71876252 434.47765213 290 436.98912168 290 441 C292.53735277 448.45347378 298.05368563 452.16220906 304.83105469 455.60791016 C347.80077043 476.25642953 401.40273848 477.38812704 448.13720703 477.31567383 C451.36488851 477.31105927 454.59219156 477.3179233 457.81982422 477.33618164 C540.21215106 479.37508157 540.21215106 479.37508157 612.1875 448.25 C614.6493847 445.59044573 615.893972 443.93304642 616.3125 440.25 C615.82446997 435.17448771 613.78255454 432.61778059 610.140625 429.3125 C566.1791394 395.35604216 482.93264852 401.453736 430.58837891 402.03808594 Z " fill="#0000FF" transform="translate(147,54)"/>
<path d="M0 0 C0.99336868 0.00031723 0.99336868 0.00031723 2.00680542 0.00064087 C12.66528707 0.03457944 22.3253384 0.96715699 32.4375 4.375 C33.58734375 4.74882813 34.7371875 5.12265625 35.921875 5.5078125 C52.74981884 11.47264705 68.43997189 21.93439903 76.4375 38.375 C81.45743974 50.63264391 81.9308286 61.87391794 77.4375 74.375 C69.34669034 92.06240889 54.14289956 102.49950253 36.4375 109.375 C24.61549048 113.20771985 13.39258739 114.61395241 1 114.625 C0.32454132 114.62567474 -0.35091736 114.62634949 -1.04684448 114.62704468 C-25.68656521 114.58784504 -47.6494154 107.55057979 -65.75390625 90.28515625 C-74.71122122 80.88592441 -79.82515472 69.63152994 -79.58789062 56.65380859 C-78.94902377 41.45232669 -72.31660877 30.64379537 -61.4375 20.25 C-44.2301826 5.71025651 -22.11495676 -0.02923233 0 0 Z M-40.875 37.6875 C-45.86515016 43.91476259 -48.273326 50.97097994 -47.875 58.9375 C-46.684333 68.22470263 -42.3827047 75.22195166 -35.3046875 81.3203125 C-21.50283207 91.57185142 -7.2635854 93.59451817 9.4375 92.375 C22.27023091 90.09738549 33.26122311 83.52025786 41.4375 73.375 C45.64894144 66.11549873 47.62555683 58.52237664 46.01171875 50.171875 C43.18084617 40.23776999 36.06867665 32.75774003 27.4375 27.375 C4.53218625 15.56199961 -22.89891411 18.63553865 -40.875 37.6875 Z " fill="#0000FF" transform="translate(934.5625,623.625)"/>
<path d="M0 0 C91.35031847 0 91.35031847 0 114 21 C114.77859375 21.69996094 115.5571875 22.39992188 116.359375 23.12109375 C121.44584624 27.91667202 125.13979357 32.6178139 128 39 C128.31839844 39.66128906 128.63679687 40.32257812 128.96484375 41.00390625 C132.5626971 49.74155009 132.34000293 61.04232937 129.4375 69.9375 C127.14088658 75.33130688 123.88635336 79.64960445 120 84 C119.48824219 84.60457031 118.97648438 85.20914063 118.44921875 85.83203125 C106.09200697 99.41576529 84.05300096 108.20206213 65.88061523 109.34680176 C61.62755359 109.50326092 57.37949165 109.45316979 53.125 109.390625 C51.75130876 109.38471796 50.37760837 109.38065328 49.00390625 109.37841797 C44.0024637 109.35774623 39.00121593 109.30190461 34 109.25 C22.78 109.1675 11.56 109.085 0 109 C0 73.03 0 37.06 0 0 Z M30 20 C30 43.1 30 66.2 30 90 C61.94286344 91.50251984 61.94286344 91.50251984 87.74609375 77.37890625 C94.91522668 69.63767294 96.70310422 62.05830066 96.37890625 51.58984375 C95.30211713 41.38809942 89.2979473 35.2979473 82.3125 28.3125 C67.62604625 16.57129714 47.08460019 20 30 20 Z " fill="#0000ff" transform="translate(468,626)"/>
<path d="M0 0 C37.95 0 75.9 0 115 0 C115 5.94 115 11.88 115 18 C89.65744398 18.79461542 64.35468968 19.12776719 39 19 C39 26.59 39 34.18 39 42 C62.76 42 86.52 42 111 42 C111 47.94 111 53.88 111 60 C86.99026973 60.79464828 63.0225383 61.12777946 39 61 C39 70.24 39 79.48 39 89 C64.08 89 89.16 89 115 89 C115 95.27 115 101.54 115 108 C77.05 108 39.1 108 0 108 C0 72.36 0 36.72 0 0 Z " fill="#0000FF" transform="translate(670,627)"/>
<path d="M0 0 C4.12498468 -0.02938023 8.24994191 -0.04692535 12.375 -0.0625 C13.53128906 -0.07087891 14.68757812 -0.07925781 15.87890625 -0.08789062 C18.17479245 -0.09437618 20.47089528 -0.0756049 22.76635742 -0.03100586 C25.93480324 0.04955635 25.93480324 0.04955635 28.8215332 -0.23657227 C31.67889342 -0.32985051 33.40178497 -0.21508136 36 1 C39.27975794 5.01006031 41.30473985 9.51232797 43.4375 14.1875 C44.07784617 15.51578591 44.72192969 16.84227621 45.36962891 18.16699219 C46.66858105 20.83666784 47.94700204 23.51460414 49.20751953 26.20263672 C51.66513482 31.43431745 54.27324835 36.5889267 56.875 41.75 C57.74373405 43.49727431 58.61222982 45.24466711 59.48046875 46.9921875 C63.1841914 54.39963279 67.08136314 61.7045625 71 69 C74.02325816 65.446044 76.21425566 61.93337084 78.28393555 57.75683594 C78.58527405 57.15299072 78.88661255 56.54914551 79.19708252 55.92700195 C80.18258359 53.94886521 81.15960383 51.96666555 82.13671875 49.984375 C82.82304941 48.60357085 83.50997363 47.22306158 84.19746399 45.84283447 C85.99910471 42.22249208 87.79384659 38.59877613 89.58679199 34.97412109 C92.46528055 29.15776737 95.35408678 23.34653316 98.24323463 17.53546906 C99.25195974 15.50402837 100.25763431 13.47109984 101.26286316 11.43792725 C101.87659379 10.20044824 102.49038538 8.96299945 103.10424805 7.72558594 C103.64067429 6.64146423 104.17710052 5.55734253 104.7297821 4.44036865 C106 2 106 2 107 1 C109.52094076 0.91152257 112.01430893 0.88472699 114.53515625 0.90234375 C115.66503212 0.90446617 115.66503212 0.90446617 116.81773376 0.90663147 C119.2326956 0.91224624 121.64756601 0.92480117 124.0625 0.9375 C125.69596221 0.9425131 127.32942586 0.94707634 128.96289062 0.95117188 C132.97529585 0.96222046 136.98763241 0.97949494 141 1 C137.32228015 8.43182763 133.65133297 15.8458806 129.5625 23.0625 C128.70253685 24.59602449 127.84320929 26.12990552 126.984375 27.6640625 C126.51451172 28.50227539 126.04464844 29.34048828 125.56054688 30.20410156 C122.79951643 35.15080379 120.07036619 40.11512524 117.33728027 45.07730103 C105.01097058 67.45223274 92.61141326 89.7841882 80 112 C76.93372294 112.21665549 73.88272762 112.37459318 70.8125 112.5 C69.51602539 112.60054687 69.51602539 112.60054687 68.19335938 112.703125 C61.96681596 112.89397691 61.96681596 112.89397691 59.50610352 110.61865234 C58.13709085 108.48042204 57.07543025 106.30034287 56 104 C54.94022848 102.05106508 53.87329745 100.10601307 52.80078125 98.1640625 C51.63571843 95.98560479 50.47305756 93.80586119 49.3125 91.625 C45.29504571 84.12029529 41.27543157 76.61964746 37.125 69.1875 C36.74093994 68.49930176 36.35687988 67.81110352 35.96118164 67.10205078 C35.12488528 65.60365157 34.28853824 64.10528065 33.45214844 62.60693359 C24.91902873 47.28806133 16.46318571 31.92586218 8.125 16.5 C7.24183105 14.87191406 7.24183105 14.87191406 6.34082031 13.2109375 C5.79780273 12.20289063 5.25478516 11.19484375 4.6953125 10.15625 C4.22109863 9.27775391 3.74688477 8.39925781 3.25830078 7.49414062 C2.020052 5.03974607 0.9801955 2.56704164 0 0 Z " fill="#0000FF" transform="translate(151,626)"/>
<path d="M0 0 C9.9 0 19.8 0 30 0 C30 35.64 30 71.28 30 108 C20.1 108 10.2 108 0 108 C0 72.36 0 36.72 0 0 Z " fill="#0000FF" transform="translate(361,627)"/>
<path d="M0 0 C2.64 0 5.28 0 8 0 C8 1.65 8 3.3 8 5 C8.66 5 9.32 5 10 5 C10.33 3.35 10.66 1.7 11 0 C13.64 0 16.28 0 19 0 C19 6.93 19 13.86 19 21 C17.02 21 15.04 21 13 21 C12.67 19.68 12.34 18.36 12 17 C11.67 18.32 11.34 19.64 11 21 C9.02 21 7.04 21 5 21 C4.67 19.35 4.34 17.7 4 16 C3.67 17.65 3.34 19.3 3 21 C0.69 21 -1.62 21 -4 21 C-3.52626501 17.87415123 -3.04509049 14.74949284 -2.5625 11.625 C-2.42779297 10.73554687 -2.29308594 9.84609375 -2.15429688 8.9296875 C-2.02216797 8.07890625 -1.89003906 7.228125 -1.75390625 6.3515625 C-1.63345947 5.56604004 -1.5130127 4.78051758 -1.38891602 3.97119141 C-1 2 -1 2 0 0 Z " fill="#0000FF" transform="translate(1109,558)"/>
<path d="M0 0 C4.95 0 9.9 0 15 0 C14.67 1.98 14.34 3.96 14 6 C13.01 6 12.02 6 11 6 C10.93941406 6.99902344 10.87882812 7.99804688 10.81640625 9.02734375 C10.73261719 10.31769531 10.64882812 11.60804688 10.5625 12.9375 C10.48128906 14.22527344 10.40007812 15.51304687 10.31640625 16.83984375 C10 20 10 20 9 21 C6.69 21 4.38 21 2 21 C2.33 16.05 2.66 11.1 3 6 C2.01 6 1.02 6 0 6 C0 4.02 0 2.04 0 0 Z " fill="#0000FF" transform="translate(1092,558)"/>
</svg>
